<svg width="78" height="40" viewBox="0 0 78 40" fill="none" xmlns="http://www.w3.org/2000/svg">
<path d="M78 0H0V40H78V0Z" fill="#DA291C"/>
<path fill-rule="evenodd" clip-rule="evenodd" d="M19.7514 28.9604V15.0747C19.7514 12.8593 21.4454 11.0396 23.5076 11.0396H24.6123C26.6745 11.0396 28.3685 12.8593 28.3685 15.0747V29H26.0485V22.5121H22.1082V28.9604H19.7514ZM51.6786 20.0198H55.7662V22.5121H51.6786V28.9604H49.3587V22.5121V20.0198V15.0747C49.3587 12.8593 51.0526 11.0396 53.1148 11.0396H55.9503V13.5319H53.1148C52.3415 13.5319 51.7155 14.2044 51.7155 15.0352V20.0198H51.6786ZM60.6639 20.0198H64.6042V15.0747C64.6042 14.244 63.9782 13.5714 63.2048 13.5714H62.1001C61.3268 13.5714 60.7007 14.244 60.7007 15.0747V20.0198H60.6639ZM64.5674 22.5121H60.6271V28.9604H58.3071V15.0747C58.3071 12.8593 60.0011 11.0396 62.0633 11.0396H63.168C65.2302 11.0396 66.9241 12.8593 66.9241 15.0747V29H64.6042V22.5121H64.5674ZM26.0117 20.0198V15.0747C26.0117 14.244 25.3857 13.5714 24.6123 13.5714H23.5076C22.7343 13.5714 22.1082 14.244 22.1082 15.0747V20.0198H26.0117ZM13.8963 28.9604C11.8341 28.9604 10.1401 27.1407 10.1401 24.9253V15.0352C10.1401 12.8198 11.8341 11 13.8963 11H17.321V13.4923H13.8963C13.123 13.4923 12.4969 14.1648 12.4969 14.9956V24.8857C12.4969 25.7165 13.123 26.389 13.8963 26.389H17.321V28.8813H13.8963V28.9604ZM31.7195 28.9604V11.0396C33.3398 11.0396 34.9601 11.0396 36.5804 11.0396C38.6426 11.0396 40.3366 12.8593 40.3366 15.0747V29H38.0166V15.0747C38.0166 14.244 37.3906 13.5714 36.6172 13.5714C35.7703 13.5714 34.9601 13.5714 34.1132 13.5714V29H31.7195V28.9604ZM43.6876 28.9604V11.0396H46.0076V29H43.6876V28.9604Z" fill="white"/>
</svg>