<svg width="297" height="32" viewBox="0 0 297 32" fill="none" xmlns="http://www.w3.org/2000/svg">
<path d="M0.5 4C0.5 2.067 2.067 0.5 4 0.5H49C50.933 0.5 52.5 2.067 52.5 4V28C52.5 29.933 50.933 31.5 49 31.5H4C2.067 31.5 0.5 29.933 0.5 28V4Z" fill="white" stroke="#E8E8EA"/>
<path fill-rule="evenodd" clip-rule="evenodd" d="M18.834 21.6783H16.0069L13.8869 13.5905C13.7863 13.2184 13.5727 12.8895 13.2584 12.7345C12.4741 12.345 11.6098 12.0349 10.667 11.8786V11.5672H15.2212C15.8498 11.5672 16.3212 12.0349 16.3998 12.5782L17.4997 18.4122L20.3254 11.5672H23.074L18.834 21.6783ZM24.6453 21.6783H21.9754L24.1739 11.5672H26.8439L24.6453 21.6783ZM30.2982 14.3683C30.3767 13.8237 30.8482 13.5123 31.3981 13.5123C32.2624 13.4341 33.2038 13.5905 33.9895 13.9787L34.4609 11.8017C33.6753 11.4903 32.811 11.334 32.0267 11.334C29.4353 11.334 27.5496 12.7345 27.5496 14.6783C27.5496 16.157 28.8853 16.9335 29.8281 17.4012C30.8482 17.8676 31.241 18.179 31.1624 18.6454C31.1624 19.345 30.3767 19.6564 29.5924 19.6564C28.6496 19.6564 27.7068 19.4232 26.8439 19.0336L26.3725 21.2119C27.3153 21.6001 28.3353 21.7565 29.2782 21.7565C32.1838 21.8333 33.9895 20.4341 33.9895 18.334C33.9895 15.6893 30.2982 15.5343 30.2982 14.3683ZM43.3337 21.6783L41.2137 11.5672H38.9366C38.4652 11.5672 37.9938 11.8786 37.8366 12.345L33.9109 21.6783H36.6595L37.2081 20.2009H40.5851L40.8994 21.6783H43.3337ZM39.3294 14.2901L40.1137 18.1008H37.9152L39.3294 14.2901Z" fill="#172B85"/>
<path d="M61.5 4C61.5 2.067 63.067 0.5 65 0.5H110C111.933 0.5 113.5 2.067 113.5 4V28C113.5 29.933 111.933 31.5 110 31.5H65C63.067 31.5 61.5 29.933 61.5 28V4Z" fill="white" stroke="#E8E8EA"/>
<path fill-rule="evenodd" clip-rule="evenodd" d="M88 22.8752C86.4113 24.2463 84.3504 25.074 82.0984 25.074C77.0735 25.074 73 20.9532 73 15.87C73 10.7868 77.0735 6.66602 82.0984 6.66602C84.3504 6.66602 86.4113 7.49369 88 8.86475C89.5888 7.49369 91.6497 6.66602 93.9017 6.66602C98.9266 6.66602 103 10.7868 103 15.87C103 20.9532 98.9266 25.074 93.9017 25.074C91.6497 25.074 89.5888 24.2463 88 22.8752Z" fill="#ED0006"/>
<path fill-rule="evenodd" clip-rule="evenodd" d="M88 22.8753C89.9563 21.1871 91.1967 18.6751 91.1967 15.87C91.1967 13.0649 89.9563 10.5529 88 8.8647C89.5888 7.49367 91.6496 6.66602 93.9016 6.66602C98.9265 6.66602 103 10.7868 103 15.87C103 20.9532 98.9265 25.074 93.9016 25.074C91.6496 25.074 89.5888 24.2463 88 22.8753Z" fill="#F9A000"/>
<path fill-rule="evenodd" clip-rule="evenodd" d="M88.0004 8.86523C89.9566 10.5534 91.1971 13.0654 91.1971 15.8705C91.1971 18.6756 89.9566 21.1875 88.0004 22.8757C86.0442 21.1875 84.8037 18.6756 84.8037 15.8705C84.8037 13.0654 86.0442 10.5534 88.0004 8.86523Z" fill="#FF5E00"/>
<path d="M122.5 4C122.5 2.067 124.067 0.5 126 0.5H171C172.933 0.5 174.5 2.067 174.5 4V28C174.5 29.933 172.933 31.5 171 31.5H126C124.067 31.5 122.5 29.933 122.5 28V4Z" fill="white" stroke="#E8E8EA"/>
<path d="M155.704 16.3824C156.389 16.3973 157.078 16.3521 157.76 16.4058C158.451 16.5347 158.618 17.5805 158.004 17.9231C157.585 18.1487 157.088 18.0071 156.634 18.0469H155.704V16.3824ZM158.156 14.4984C158.308 15.0355 157.791 15.5177 157.273 15.4437H155.704C155.715 14.9372 155.683 14.3875 155.72 13.9076C156.349 13.9253 156.983 13.8715 157.608 13.9358C157.877 14.0032 158.101 14.2239 158.156 14.4984ZM161.932 6.53324C161.961 7.55898 161.936 8.63893 161.945 9.68547C161.943 13.9403 161.949 18.1951 161.941 22.4502C161.914 24.0448 160.501 25.4304 158.917 25.4622C157.332 25.4686 155.747 25.4632 154.161 25.465V19.0325C155.889 19.0236 157.617 19.0506 159.343 19.019C160.144 18.9687 161.022 18.4402 161.059 17.5588C161.153 16.6736 160.319 16.0613 159.526 15.9645C159.222 15.9566 159.231 15.8758 159.526 15.8405C160.282 15.6771 160.876 14.8949 160.653 14.1115C160.464 13.2876 159.553 12.9687 158.796 12.9703C157.251 12.9598 155.706 12.9688 154.162 12.9658C154.172 11.7649 154.141 10.5627 154.178 9.36276C154.301 7.79693 155.749 6.50563 157.311 6.53365C158.851 6.53342 160.392 6.53342 161.932 6.53336V6.53324Z" fill="url(#paint0_linear_593_18148)"/>
<path d="M136.708 9.52523C136.748 7.93314 138.167 6.55891 139.748 6.53564C141.328 6.53078 142.907 6.53494 144.486 6.53353C144.482 11.8603 144.495 17.1877 144.48 22.5142C144.419 24.0869 143.015 25.4349 141.451 25.4628C139.869 25.4685 138.286 25.4636 136.704 25.4652V18.8159C138.241 19.179 139.853 19.3335 141.421 19.0927C142.358 18.9419 143.383 18.4816 143.7 17.5093C143.934 16.6775 143.803 15.8022 143.837 14.9485V12.9661H141.124C141.112 14.2772 141.149 15.5907 141.104 16.9003C141.031 17.7052 140.234 18.2166 139.475 18.1893C138.533 18.1993 136.667 17.507 136.667 17.507C136.663 15.0504 136.695 11.9739 136.708 9.52546V9.52523Z" fill="url(#paint1_linear_593_18148)"/>
<path d="M145.498 13.766C145.355 13.7963 145.469 13.2795 145.433 13.0834C145.443 11.8438 145.412 10.6029 145.449 9.36413C145.571 7.79168 147.031 6.49716 148.599 6.53397H153.216C153.211 11.8607 153.224 17.1881 153.209 22.5146C153.148 24.0873 151.744 25.4353 150.18 25.4632C148.598 25.4692 147.015 25.4642 145.433 25.4657V18.1804C146.513 19.0672 147.982 19.2052 149.329 19.2076C150.344 19.2072 151.353 19.0507 152.338 18.8167V17.482C151.228 18.0356 149.922 18.3873 148.69 18.0692C147.831 17.8554 147.208 17.0252 147.222 16.1388C147.122 15.2169 147.663 14.2436 148.569 13.9695C149.693 13.6174 150.919 13.8867 151.974 14.3445C152.199 14.4628 152.429 14.6095 152.338 14.2319V13.1829C150.575 12.7633 148.698 12.609 146.927 13.0654C146.414 13.21 145.915 13.4294 145.498 13.7661V13.766Z" fill="url(#paint2_linear_593_18148)"/>
<path d="M183.5 4C183.5 2.067 185.067 0.5 187 0.5H232C233.933 0.5 235.5 2.067 235.5 4V28C235.5 29.933 233.933 31.5 232 31.5H187C185.067 31.5 183.5 29.933 183.5 28V4Z" fill="white" stroke="#E8E8EA"/>
<path d="M218.344 8.77039C219.118 8.62329 219.827 8.62874 220.515 8.863C221.495 9.20622 222.475 9.56033 223.438 9.95258C224.451 10.3612 225.095 11.1729 225.652 12.0827C226.665 13.7225 227.699 15.3405 228.738 16.964C228.895 17.2092 228.895 17.3399 228.679 17.5578C227.407 18.8054 226.156 20.0747 224.905 21.3441C224.716 21.5348 224.564 21.7527 224.364 21.9978C223.411 21.5838 222.312 21.3931 221.516 20.6141C219.914 19.0451 218.338 17.4489 216.763 15.8526C216.314 15.4005 216.292 14.6704 216.682 14.191C217.109 13.6517 217.808 13.4937 218.371 13.8642C219.481 14.5996 220.574 15.3514 221.657 16.1141C222.35 16.6044 223.059 16.6753 223.812 16.2994C223.958 16.2285 224.104 16.1577 224.256 16.0923C224.851 15.809 224.927 15.3841 224.467 14.921C222.523 12.9653 220.574 11.004 218.631 9.04823C218.555 8.98285 218.474 8.90114 218.344 8.77039Z" fill="#333F48"/>
<path d="M221.506 22.1948C221.306 22.3637 221.122 22.5598 220.905 22.6905C220.45 22.9738 219.898 22.8976 219.498 22.538C219.438 22.489 219.384 22.4345 219.33 22.38C216.379 19.4109 213.429 16.4418 210.478 13.4727C210.213 13.2058 210.018 12.9116 210.007 12.5193C210.002 12.187 210.105 11.8874 210.337 11.6531C211.577 10.3947 212.811 9.14166 214.067 7.89954C214.571 7.40378 215.291 7.44192 215.789 7.94312C218.182 10.3511 220.57 12.7536 222.962 15.1616C222.995 15.1943 223.022 15.2324 223.071 15.2814C222.811 15.4013 222.611 15.2978 222.421 15.1616C221.36 14.4316 220.293 13.6961 219.238 12.9606C218.193 12.2361 216.958 12.2905 216.016 13.1186C215.194 13.8377 214.95 15.118 215.475 16.1258C215.621 16.4037 215.816 16.6652 216.033 16.8831C217.451 18.3322 218.886 19.7759 220.326 21.2033C220.683 21.5519 221.084 21.8461 221.506 22.1948Z" fill="#333F48"/>
<path d="M227.663 20.3151C228.28 19.6941 228.892 19.0785 229.509 18.4574C230.127 17.8364 230.825 17.8418 231.442 18.4629C231.545 18.5664 231.642 18.6644 231.745 18.7679C232.249 19.2855 232.287 20.0101 231.783 20.5276C230.489 21.8514 229.19 23.1589 227.874 24.461C227.376 24.9513 226.683 24.9295 226.169 24.4664C226.028 24.3357 225.893 24.1995 225.763 24.0578C225.238 23.4967 225.232 22.783 225.768 22.2328C226.391 21.5845 227.03 20.9525 227.663 20.3151Z" fill="#333F48"/>
<path d="M193.163 10.0371H191.466V14.666H190.104V10.0371H188.438V8.97852H193.163V10.0371Z" fill="#333F48"/>
<path d="M195.034 14.666H193.675V8.97852H195.034V14.666Z" fill="#333F48"/>
<path d="M199.327 12.2559H197.185V13.6113H199.716V14.666H195.822V8.97852H199.723V10.0371H197.185V11.2363H199.327V12.2559ZM199.296 8.69727H198.454L197.895 8.24414L197.34 8.69727H196.486L197.577 7.8457H198.213L199.296 8.69727ZM196.769 8.23633H196.086L195.158 7.16211H196.09L196.769 8.23633Z" fill="#333F48"/>
<path d="M204.832 14.666H203.477L201.474 11.127V14.666H200.112V8.97852H201.474L203.473 12.5176V8.97852H204.832V14.666Z" fill="#333F48"/>
<path d="M190.517 18.3125L191.779 22.2695L193.036 18.3125H194.83V24H193.463V22.6719L193.595 19.9531L192.229 24H191.328L189.958 19.9492L190.09 22.6719V24H188.728V18.3125H190.517Z" fill="#333F48"/>
<path d="M198.82 22.9375H196.953L196.627 24H195.172L197.244 18.3125H198.525L200.614 24H199.15L198.82 22.9375ZM197.279 21.8789H198.494L197.885 19.9062L197.279 21.8789ZM199.337 16.7812C199.337 17.138 199.206 17.4271 198.945 17.6484C198.683 17.8698 198.335 17.9805 197.9 17.9805C197.466 17.9805 197.118 17.8698 196.856 17.6484C196.595 17.4271 196.464 17.138 196.464 16.7812H197.353C197.353 16.9375 197.401 17.0599 197.497 17.1484C197.595 17.2344 197.73 17.2773 197.9 17.2773C198.071 17.2773 198.203 17.2357 198.296 17.1523C198.392 17.0664 198.44 16.9427 198.44 16.7812H199.337ZM197.186 24.8633C197.186 24.694 197.255 24.5547 197.392 24.4453C197.532 24.3359 197.705 24.2812 197.912 24.2812C198.119 24.2812 198.291 24.3359 198.428 24.4453C198.568 24.5547 198.638 24.694 198.638 24.8633C198.638 25.0326 198.568 25.1719 198.428 25.2812C198.291 25.3906 198.119 25.4453 197.912 25.4453C197.705 25.4453 197.532 25.3906 197.392 25.2812C197.255 25.1719 197.186 25.0326 197.186 24.8633Z" fill="#333F48"/>
<path d="M204.841 19.3711H203.145V24H201.782V19.3711H200.117V18.3125H204.841V19.3711Z" fill="#333F48"/>
<path d="M244.5 4C244.5 2.067 246.067 0.5 248 0.5H293C294.933 0.5 296.5 2.067 296.5 4V28C296.5 29.933 294.933 31.5 293 31.5H248C246.067 31.5 244.5 29.933 244.5 28V4Z" fill="white" stroke="#E8E8EA"/>
<path d="M259.424 8.00097H263.214C264.61 7.97836 266.141 8.3415 266.141 10.0323C266.141 10.7585 265.71 11.3485 265.075 11.6662C265.937 11.9158 266.471 12.6649 266.471 13.584C266.471 15.5131 265.052 16.103 263.316 16.103H259.424V8.00097ZM261.534 11.1897H263.169C263.532 11.1897 264.031 10.9967 264.031 10.4181C264.031 9.82797 263.611 9.63518 263.169 9.63518H261.534V11.1897ZM261.534 14.4123H263.225C263.895 14.4123 264.36 14.1741 264.36 13.5046C264.36 12.7896 263.861 12.5513 263.225 12.5513H261.534V14.4123Z" fill="#333333"/>
<path d="M269.817 8.00195H271.961L274.991 16.104H272.79L272.291 14.6516H269.465L268.954 16.104H266.787L269.817 8.00195ZM269.953 13.0858H271.791L270.895 10.249H270.872L269.953 13.0858Z" fill="#333333"/>
<path d="M275.581 8.00195H277.749L280.563 12.9949H280.585V8.00195H282.571V16.104H280.404L277.59 11.0546H277.567V16.104H275.581V8.00195Z" fill="#333333"/>
<path d="M284.012 8.00195H286.122V11.1113L288.789 8.00195H291.41L288.414 11.1907L291.785 16.1041H289.164L286.985 12.7001L286.122 13.6079V16.1042H284.012V8.00205L284.012 8.00195Z" fill="#333333"/>
<path d="M254.115 19.0433H252.451V23.3724H250.998V19.0433H249.333V17.793H254.115V19.0433Z" fill="#333333"/>
<path d="M254.756 17.791H257.6C258.585 17.791 259.554 18.2366 259.554 19.3616C259.554 19.9633 259.265 20.5338 258.679 20.7606V20.776C259.273 20.9169 259.444 21.5808 259.491 22.1123C259.507 22.3467 259.531 23.1671 259.726 23.3705H258.288C258.163 23.183 258.139 22.636 258.124 22.4798C258.084 21.9171 257.991 21.3389 257.311 21.3389H256.209V23.3705H254.756V17.791ZM256.21 20.2133H257.428C257.866 20.2133 258.1 19.979 258.1 19.5571C258.1 19.1431 257.772 18.9552 257.366 18.9552H256.21C256.21 18.9552 256.21 20.2133 256.21 20.2133Z" fill="#333333"/>
<path d="M261.914 17.791H263.391L265.477 23.3704H263.961L263.617 22.3701H261.671L261.32 23.3704H259.827L261.914 17.791ZM262.008 21.2918H263.274L262.656 19.338H262.64L262.008 21.2918Z" fill="#333333"/>
<path d="M265.884 17.791H267.376L269.314 21.2293H269.33V17.791H270.698V23.3704H269.205L267.267 19.8932H267.251V23.3704H265.884V17.791Z" fill="#333333"/>
<path d="M272.824 21.4952C272.855 22.1516 273.261 22.3624 273.879 22.3624C274.316 22.3624 274.769 22.2063 274.769 21.7921C274.769 21.2998 273.972 21.2061 273.168 20.9792C272.37 20.7527 271.534 20.3934 271.534 19.3695C271.534 18.1506 272.761 17.6738 273.808 17.6738C274.918 17.6738 276.035 18.2128 276.043 19.471H274.59C274.613 18.9631 274.137 18.799 273.691 18.799C273.379 18.799 272.988 18.9083 272.988 19.2758C272.988 19.7055 273.793 19.7836 274.605 20.0103C275.41 20.2369 276.223 20.6119 276.223 21.6199C276.223 23.0345 275.019 23.4878 273.793 23.4878C272.511 23.4878 271.378 22.925 271.37 21.4951H272.824V21.4952Z" fill="#333333"/>
<path d="M276.902 17.791H281.013V18.9553H278.356V20.0962H280.653V21.2212H278.356V23.3704H276.902V17.791Z" fill="#333333"/>
<path d="M281.677 17.791H286.123V18.9553H283.13V19.9321H285.865V21.0574H283.13V22.1202H286.201V23.3703H281.677L281.677 17.791Z" fill="#333333"/>
<path d="M287.03 17.791H289.875C290.859 17.791 291.828 18.2366 291.828 19.3616C291.828 19.9633 291.539 20.5338 290.953 20.7606V20.776C291.547 20.9169 291.719 21.5808 291.766 22.1123C291.781 22.3467 291.805 23.1671 292 23.3705H290.562C290.437 23.183 290.414 22.636 290.398 22.4798C290.359 21.9171 290.265 21.3389 289.585 21.3389H288.484V23.3705H287.03V17.791ZM288.484 20.2133H289.703C290.14 20.2133 290.375 19.979 290.375 19.5571C290.375 19.1431 290.047 18.9552 289.64 18.9552H288.484V20.2133Z" fill="#333333"/>
<path d="M258.13 8H249.333V9.76164H258.13V8Z" fill="#D92B2B"/>
<path d="M258.13 14.3418H249.333V16.1033H258.13V14.3418Z" fill="#D92B2B"/>
<path d="M258.13 11.1699H249.333V12.9316H258.13V11.1699Z" fill="#D92B2B"/>
<defs>
<linearGradient id="paint0_linear_593_18148" x1="154.108" y1="15.5943" x2="161.896" y2="15.5943" gradientUnits="userSpaceOnUse">
<stop stop-color="#58B03A"/>
<stop offset="1" stop-color="#55B330"/>
</linearGradient>
<linearGradient id="paint1_linear_593_18148" x1="136.538" y1="16.1807" x2="144.359" y2="16.1807" gradientUnits="userSpaceOnUse">
<stop stop-color="#0F6EB6"/>
<stop offset="1" stop-color="#006DBA"/>
</linearGradient>
<linearGradient id="paint2_linear_593_18148" x1="145.421" y1="15.7784" x2="153.214" y2="15.7784" gradientUnits="userSpaceOnUse">
<stop stop-color="#DE0D3D"/>
<stop offset="1" stop-color="#E30138"/>
</linearGradient>
</defs>
</svg>
